<svg width="20" height="20" viewBox="0 0 20 20" fill="none" xmlns="http://www.w3.org/2000/svg">
<g clip-path="url(#clip0_63_156)">
<path d="M5 4.1359V2.91632C5 2.5848 5.1317 2.26686 5.36612 2.03244C5.60054 1.79802 5.91848 1.66632 6.25 1.66632H17.0833C17.4149 1.66632 17.7328 1.79802 17.9672 2.03244C18.2016 2.26686 18.3333 2.5848 18.3333 2.91632V13.7497C18.3333 14.0812 18.2016 14.3991 17.9672 14.6335C17.7328 14.868 17.4149 14.9997 17.0833 14.9997H15.8404" stroke="#C00900" stroke-width="1.66667"/>
<path d="M14.5832 4.16632H2.9165C2.22615 4.16632 1.6665 4.72596 1.6665 5.41632V17.083C1.6665 17.7733 2.22615 18.333 2.9165 18.333H14.5832C15.2735 18.333 15.8332 17.7733 15.8332 17.083V5.41632C15.8332 4.72596 15.2735 4.16632 14.5832 4.16632Z" stroke="#C00900" stroke-width="1.66667" stroke-linejoin="round"/>
<path d="M7.68314 9.62851L9.88814 7.33268C10.4927 6.7281 11.4869 6.74101 12.1081 7.36268C12.7294 7.98393 12.7427 8.9781 12.1381 9.58268L11.3423 10.4256M5.61064 11.9773C5.39814 12.1898 4.95856 12.6148 4.95856 12.6148C4.35356 13.2193 4.33689 14.2973 4.95856 14.9189C5.57939 15.5398 6.57356 15.5535 7.17856 14.9485L9.33022 12.9952" stroke="#C00900" stroke-width="1.66667" stroke-linecap="round" stroke-linejoin="round"/>
<path d="M7.77658 11.803C7.4998 11.528 7.33233 11.1618 7.30533 10.7726C7.28937 10.5542 7.32055 10.335 7.39676 10.1298C7.47296 9.9245 7.59241 9.73804 7.747 9.58301M9.30075 10.7751C9.922 11.3963 9.93533 12.3905 9.33075 12.9955" stroke="#C00900" stroke-width="1.66667" stroke-linecap="round" stroke-linejoin="round"/>
</g>
<defs>
<clipPath id="clip0_63_156">
<rect width="20" height="20" fill="white"/>
</clipPath>
</defs>
</svg>
